<?xml version="1.0" standalone="no"?>
<!DOCTYPE svg PUBLIC "-//W3C//DTD SVG 20010904//EN"
 "http://www.w3.org/TR/2001/REC-SVG-20010904/DTD/svg10.dtd">
<svg version="1.0" xmlns="http://www.w3.org/2000/svg"
 width="384.000000pt" height="384.000000pt" viewBox="0 0 384.000000 384.000000"
 preserveAspectRatio="xMidYMid meet">
<metadata>
Created by potrace 1.11, written by Peter Selinger 2001-2013
</metadata>
<g transform="translate(0.000000,384.000000) scale(0.100000,-0.100000)"
fill="#000000" stroke="none">
<path d="M0 3830 c0 -5 5 -10 10 -10 6 0 10 -5 10 -10 0 -6 30 -63 66 -128
116 -205 145 -256 157 -282 6 -14 14 -27 17 -30 4 -3 22 -34 42 -70 19 -36 50
-92 68 -125 18 -33 43 -76 54 -95 12 -19 30 -52 41 -72 11 -21 22 -38 25 -39
3 -1 322 -2 710 -3 469 -1 704 -5 703 -11 -1 -6 -5 -37 -8 -70 -4 -33 -9 -63
-11 -66 -1 -3 -6 -28 -9 -55 -6 -49 -8 -57 -19 -124 -3 -19 -8 -53 -11 -74 -3
-21 -7 -48 -10 -60 -4 -21 -13 -74 -20 -131 -6 -41 -26 -176 -30 -195 -6 -35
-16 -98 -20 -134 -6 -48 -14 -96 -20 -116 -2 -8 -7 -40 -10 -70 -3 -30 -8 -62
-10 -70 -2 -8 -7 -35 -10 -60 -3 -25 -12 -85 -20 -135 -23 -147 -28 -179 -31
-200 -1 -11 -5 -33 -8 -50 -2 -16 -7 -48 -11 -70 -3 -23 -7 -50 -9 -60 -10
-58 -19 -121 -18 -127 1 -4 -7 -28 -18 -53 -11 -25 -20 -47 -20 -50 -2 -27
-38 -90 -61 -106 l-29 -20 5 33 c2 18 6 44 9 58 2 14 10 59 16 100 12 75 16
94 24 140 3 14 7 41 10 60 3 19 15 87 26 150 11 63 22 129 25 145 16 107 23
151 30 185 2 13 7 42 11 65 3 22 12 73 19 113 8 41 14 77 14 80 -1 4 0 9 1 12
3 8 8 36 14 78 3 22 7 51 10 64 3 12 8 41 12 63 3 22 7 49 9 60 2 11 6 38 10
60 3 22 11 64 16 93 6 29 13 70 15 90 3 20 13 87 24 147 11 61 22 129 25 153
l6 42 -635 0 -635 0 59 -101 c33 -55 60 -102 60 -104 0 -2 21 -41 48 -87 26
-46 56 -101 67 -123 11 -22 22 -42 26 -45 3 -3 20 -32 39 -65 18 -33 42 -76
53 -95 73 -128 69 -115 57 -181 -6 -33 -13 -72 -15 -87 -1 -15 -6 -43 -9 -62
-3 -19 -8 -48 -11 -65 -3 -16 -8 -46 -11 -65 -3 -19 -18 -116 -34 -215 -16
-99 -31 -196 -34 -215 -3 -19 -8 -44 -10 -56 -2 -12 -7 -45 -11 -75 -3 -30 -8
-61 -10 -69 -2 -8 -6 -28 -9 -45 -3 -16 -7 -43 -10 -60 -19 -114 -28 -173 -30
-196 -2 -20 -97 -199 -183 -344 -6 -11 -19 -33 -27 -50 -9 -16 -24 -43 -34
-60 -66 -107 -202 -363 -202 -380 0 -3 321 -4 713 -3 l712 3 58 24 c186 74
341 246 412 456 21 60 78 350 100 510 3 22 15 85 25 140 11 55 22 118 25 140
3 22 8 51 12 65 3 14 7 35 8 47 2 13 6 42 10 65 4 24 9 52 11 63 15 93 46 274
48 290 18 100 25 144 32 195 3 25 8 54 11 65 4 11 8 34 9 50 2 17 8 55 14 85
5 30 12 73 15 95 3 22 8 47 10 55 2 8 6 32 9 53 7 46 17 104 21 126 1 9 6 36
10 61 4 25 9 54 11 65 3 11 6 38 9 60 4 36 17 112 20 125 1 3 5 31 9 62 6 39
12 55 20 51 6 -4 163 -8 348 -8 l337 0 27 47 c16 27 33 48 38 48 5 0 7 3 3 6
-3 3 5 24 19 45 13 21 24 41 24 43 0 3 17 33 37 68 39 65 79 138 110 198 10
19 21 37 24 40 3 3 26 43 50 90 24 47 46 87 49 90 11 10 44 65 46 75 1 6 18
38 38 72 20 34 36 64 36 67 0 3 -864 6 -1920 6 -1273 0 -1920 -3 -1920 -10z"/>
</g>
</svg>
